<svg width="25" height="24" viewBox="0 0 25 24" fill="none" xmlns="http://www.w3.org/2000/svg">
<path d="M18.48 10.79V14.79C18.48 15.05 18.47 15.3 18.44 15.54C18.21 18.24 16.62 19.58 13.69 19.58H13.29C13.04 19.58 12.8 19.7 12.65 19.9L11.45 21.5C10.92 22.21 10.06 22.21 9.53 21.5L8.33 19.9C8.24995 19.8068 8.15212 19.7305 8.04223 19.6755C7.93234 19.6206 7.81259 19.5881 7.69 19.58H7.29C4.1 19.58 2.5 18.79 2.5 14.79V10.79C2.5 7.86 3.85 6.27 6.54 6.04C6.78 6.01 7.03 6 7.29 6H13.69C16.88 6 18.48 7.6 18.48 10.79Z" stroke="#848484" stroke-width="1.5" stroke-miterlimit="10" stroke-linecap="round" stroke-linejoin="round"/>
<path d="M22.48 6.79V10.79C22.48 13.73 21.13 15.31 18.44 15.54C18.47 15.3 18.48 15.05 18.48 14.79V10.79C18.48 7.6 16.88 6 13.69 6H7.28998C7.02998 6 6.77998 6.01 6.53998 6.04C6.76998 3.35 8.35998 2 11.29 2H17.69C20.88 2 22.48 3.6 22.48 6.79Z" stroke="#848484" stroke-width="1.5" stroke-miterlimit="10" stroke-linecap="round" stroke-linejoin="round"/>
<path d="M13.995 13.25H14.005M10.495 13.25H10.505M6.995 13.25H7.005" stroke="#848484" stroke-width="2" stroke-linecap="round" stroke-linejoin="round"/>
</svg>
