<svg width="25" height="24" viewBox="0 0 25 24" fill="none" xmlns="http://www.w3.org/2000/svg">
<path d="M3.5 9.10998V14.88C3.5 17 3.5 17 5.5 18.35L11 21.53C11.83 22.01 13.18 22.01 14 21.53L19.5 18.35C21.5 17 21.5 17 21.5 14.89V9.10998C21.5 6.99998 21.5 6.99999 19.5 5.64999L14 2.46999C13.18 1.98999 11.83 1.98999 11 2.46999L5.5 5.64999C3.5 6.99999 3.5 6.99998 3.5 9.10998Z" stroke="#848484" stroke-width="1.5" stroke-linecap="round" stroke-linejoin="round"/>
<path d="M12.5 15C13.2956 15 14.0587 14.6839 14.6213 14.1213C15.1839 13.5587 15.5 12.7956 15.5 12C15.5 11.2044 15.1839 10.4413 14.6213 9.87868C14.0587 9.31607 13.2956 9 12.5 9C11.7044 9 10.9413 9.31607 10.3787 9.87868C9.81607 10.4413 9.5 11.2044 9.5 12C9.5 12.7956 9.81607 13.5587 10.3787 14.1213C10.9413 14.6839 11.7044 15 12.5 15Z" stroke="#848484" stroke-width="1.5" stroke-linecap="round" stroke-linejoin="round"/>
</svg>
