<svg width="179" height="179" viewBox="0 0 179 179" fill="none" xmlns="http://www.w3.org/2000/svg">
<circle cx="82.5" cy="78.5" r="3.5" fill="white"/>
<circle cx="98.5" cy="78.5" r="3.5" fill="white"/>
<circle cx="114.5" cy="78.5" r="3.5" fill="white"/>
<path opacity="0.4" d="M137.755 125.524L140.664 149.092C141.41 155.282 134.772 159.608 129.477 156.401L98.2262 137.83C94.7954 137.83 91.4391 137.606 88.1575 137.159C93.8107 130.605 96.9325 122.245 96.9583 113.59C96.9583 92.4087 78.6108 75.2545 55.9375 75.2545C47.2858 75.2545 39.3054 77.7158 32.6675 82.0416C32.4437 80.177 32.3691 78.3125 32.3691 76.3733C32.3691 42.4379 61.8296 14.9166 98.2262 14.9166C134.623 14.9166 164.083 42.4379 164.083 76.3733C164.083 96.5108 153.716 114.336 137.755 125.524Z" fill="white"/>
<path d="M96.9584 113.59C96.9584 122.466 93.6767 130.67 88.1575 137.159C80.7738 146.109 69.0642 151.852 55.9375 151.852L36.4713 163.412C33.1896 165.426 29.0129 162.666 29.4604 158.863L31.325 144.17C21.3309 137.233 14.9167 126.12 14.9167 113.59C14.9167 100.464 21.9275 88.9034 32.6675 82.0417C39.3054 77.7159 47.2859 75.2546 55.9375 75.2546C78.6109 75.2546 96.9584 92.4088 96.9584 113.59Z" fill="white"/>
<path d="M98.2262 14.9166C61.8296 14.9166 32.3691 42.4379 32.3691 76.3733C32.3691 78.3125 32.4437 80.177 32.6675 82.0416C39.3054 77.7158 47.2858 75.2545 55.9375 75.2545C78.6108 75.2545 96.9583 92.4087 96.9583 113.59C96.9583 122.466 93.6766 130.67 88.1575 137.159C91.4391 137.606 94.7954 137.83 98.2262 137.83L129.477 156.401C134.772 159.608 141.41 155.282 140.664 149.092L137.755 125.524C153.716 114.336 164.083 96.5108 164.083 76.3733C164.083 53.4762 150.658 33.4879 130.67 22.897" stroke="#56575C" stroke-width="2" stroke-linecap="round" stroke-linejoin="round"/>
<path d="M32.6675 82.0417C39.3054 77.7159 47.2859 75.2546 55.9375 75.2546C78.6109 75.2546 96.9584 92.4088 96.9584 113.59C96.9584 122.466 93.6767 130.67 88.1575 137.159C80.7738 146.109 69.0642 151.852 55.9375 151.852L36.4713 163.412C33.1896 165.426 29.0129 162.666 29.4604 158.863L31.325 144.17C21.3309 137.233 14.9167 126.12 14.9167 113.59C14.9167 111.353 15.1404 109.19 15.5134 107.102" stroke="#56575C" stroke-width="2" stroke-linecap="round" stroke-linejoin="round"/>
<path d="M55.0769 120.865C53.8224 120.865 52.782 119.745 52.782 118.394V101.916C52.782 100.565 53.8224 99.4445 55.0769 99.4445C56.3314 99.4445 57.3718 100.565 57.3718 101.916V118.394C57.3718 119.745 56.3314 120.865 55.0769 120.865ZM55.0769 131.573C54.8933 131.573 54.6791 131.54 54.465 131.507C54.2732 131.471 54.0876 131.404 53.9142 131.309C53.7192 131.237 53.5339 131.137 53.3634 131.012L52.9044 130.617C52.3537 129.991 52.0171 129.134 52.0171 128.277C52.0171 127.42 52.3537 126.563 52.9044 125.937L53.3634 125.542C53.547 125.41 53.7306 125.311 53.9142 125.245C54.0978 125.146 54.2814 125.08 54.465 125.047C54.8627 124.949 55.2911 124.949 55.6583 125.047C55.8725 125.08 56.0561 125.146 56.2397 125.245C56.4232 125.311 56.6068 125.41 56.7904 125.542L57.2494 125.937C57.8002 126.563 58.1367 127.42 58.1367 128.277C58.1367 129.134 57.8002 129.991 57.2494 130.617L56.7904 131.012C56.6068 131.144 56.4232 131.243 56.2397 131.309C56.0561 131.408 55.8725 131.474 55.6583 131.507C55.4747 131.54 55.2605 131.573 55.0769 131.573Z" fill="#5C48A2"/>
</svg>
