<svg width="25" height="24" viewBox="0 0 25 24" fill="none" xmlns="http://www.w3.org/2000/svg">
<path d="M14.23 3.51001L15.99 7.03001C16.23 7.52002 16.87 7.99001 17.41 8.08001L20.6 8.61001C22.64 8.95001 23.12 10.43 21.65 11.89L19.17 14.37C18.75 14.79 18.52 15.6 18.65 16.18L19.36 19.25C19.92 21.68 18.63 22.62 16.48 21.35L13.49 19.58C12.95 19.26 12.06 19.26 11.51 19.58L8.52 21.35C6.38 22.62 5.08 21.67 5.64 19.25L6.35 16.18C6.48 15.6 6.25 14.79 5.83 14.37L3.35 11.89C1.89 10.43 2.36 8.95001 4.4 8.61001L7.59 8.08001C8.12 7.99001 8.76 7.52002 9 7.03001L10.76 3.51001C11.72 1.60001 13.28 1.60001 14.23 3.51001Z" stroke="#848484" stroke-width="1.5" stroke-linecap="round" stroke-linejoin="round"/>
</svg>
