<svg width="18" height="18" viewBox="0 0 18 18" fill="none" xmlns="http://www.w3.org/2000/svg">
<path d="M4.30502 12C4.38752 11.6325 4.23752 11.1075 3.97502 10.845L2.15252 9.0225C1.58252 8.4525 1.35752 7.845 1.52252 7.32C1.69502 6.795 2.22752 6.435 3.02252 6.3L5.36252 5.91C5.70002 5.85 6.11252 5.55 6.27002 5.2425L7.56002 2.655C7.93502 1.9125 8.44502 1.5 9.00002 1.5C9.55502 1.5 10.065 1.9125 10.44 2.655L11.73 5.2425C11.8275 5.4375 12.03 5.625 12.2475 5.7525L4.17002 13.83C4.06502 13.935 3.88502 13.8375 3.91502 13.6875L4.30502 12ZM14.025 10.8465C13.755 11.1165 13.605 11.634 13.695 12.0015L14.2125 14.259C14.43 15.1965 14.295 15.9015 13.83 16.239C13.6325 16.377 13.3959 16.448 13.155 16.4415C12.7725 16.4415 12.3225 16.299 11.8275 16.0065L9.63002 14.7015C9.28502 14.499 8.71502 14.499 8.37002 14.7015L6.17252 16.0065C5.34002 16.494 4.62752 16.5765 4.17002 16.239C3.99752 16.1115 3.87002 15.939 3.78752 15.714L12.9075 6.594C13.2525 6.249 13.74 6.0915 14.2125 6.174L14.97 6.3015C15.765 6.4365 16.2975 6.7965 16.47 7.3215C16.635 7.8465 16.41 8.454 15.84 9.024L14.025 10.8465Z" fill="#5C48A2"/>
</svg>
